inDegrees=no
num_controls=7
num_derivatives=13
num_iterations=32
num_multipliers=7
num_parameters=0
num_slacks=7
num_states=26
objective=0.472802
objective_accelerations=0.051686
objective_balance=0.001000
objective_effort=0.014821
objective_height=0.396034
objective_ligament=0.009260
solver_duration=526.210747
status=Solve_Succeeded
success=true
DataType=double
version=3
OpenSimVersion=4.5
endheader
time	/jointset/ground_pelvis/pelvis_tilt/value	/jointset/ground_pelvis/pelvis_tx/value	/jointset/ground_pelvis/pelvis_ty/value	/jointset/hip_l/hip_flexion_l/value	/jointset/hip_l/hip_adduction_l/value	/jointset/hip_l/hip_rotation_l/value	/jointset/back/lumbar_extension/value	/jointset/patellofemoral_l/patellar_flexion_l/value	/jointset/knee_l/knee_flexion_l/value	/jointset/knee_l/knee_adduction_l/value	/jointset/knee_l/knee_rotation_l/value	/jointset/ankle_l/ankle_angle_l/value	/jointset/subtalar_l/subtalar_angle_l/value	/jointset/ground_pelvis/pelvis_tilt/speed	/jointset/ground_pelvis/pelvis_tx/speed	/jointset/ground_pelvis/pelvis_ty/speed	/jointset/hip_l/hip_flexion_l/speed	/jointset/hip_l/hip_adduction_l/speed	/jointset/hip_l/hip_rotation_l/speed	/jointset/back/lumbar_extension/speed	/jointset/patellofemoral_l/patellar_flexion_l/speed	/jointset/knee_l/knee_flexion_l/speed	/jointset/knee_l/knee_adduction_l/speed	/jointset/knee_l/knee_rotation_l/speed	/jointset/ankle_l/ankle_angle_l/speed	/jointset/subtalar_l/subtalar_angle_l/speed	/forceset/tau_hip_flexion_l	/forceset/tau_hip_adduction_l	/forceset/tau_hip_rotation_l	/forceset/tau_knee_flexion_l	/forceset/tau_ankle_angle_l	/forceset/tau_subtalar_angle_l	/forceset/tau_lumbar_extension	lambda_cid13_p0	lambda_cid13_p1	lambda_cid13_p2	lambda_cid13_p3	lambda_cid13_p4	lambda_cid13_p5	lambda_cid14_p0	/jointset/ground_pelvis/pelvis_tilt/accel	/jointset/ground_pelvis/pelvis_tx/accel	/jointset/ground_pelvis/pelvis_ty/accel	/jointset/hip_l/hip_flexion_l/accel	/jointset/hip_l/hip_adduction_l/accel	/jointset/hip_l/hip_rotation_l/accel	/jointset/back/lumbar_extension/accel	/jointset/patellofemoral_l/patellar_flexion_l/accel	/jointset/knee_l/knee_flexion_l/accel	/jointset/knee_l/knee_adduction_l/accel	/jointset/knee_l/knee_rotation_l/accel	/jointset/ankle_l/ankle_angle_l/accel	/jointset/subtalar_l/subtalar_angle_l/accel	gamma_cid13_p0	gamma_cid13_p1	gamma_cid13_p2	gamma_cid13_p3	gamma_cid13_p4	gamma_cid13_p5	gamma_cid14_p0
0	0.05271041388038517	0.1056078282891558	0.9044089029278248	0.1266922784136757	-0.3569455261741492	-0.234994418386034	-0.2144969558742783	0.2051545070142171	0.2051545070141877	-0.1474049194458451	-0.1635395270283975	0.09024313228550125	0.09336728436563056	0	0	0	0	0	0	0	0	0	0	0	0	0	0.105397360494065	-0.02500875912173924	-0.008361617223741831	-0.2396355197558042	0.1910596700157282	-0.1016156827374581	-0.03939066955321902	29.53961857606111	40.633875304467	-8.671680328019479	-22.72967811908018	-437.7153521168854	-28.32401922826164	-26.16017249520981	-2.214511380166408	-0.7073343473500027	-0.7821379178949174	9.34346567383991	-0.5093417479327711	3.05602061908811	-3.313957173821132	10.14986978610912	10.14986978610901	1.580628401339499	-0.8303601587176124	3.817544008514633	0.6005846451007277	-9.715944346427798e-09	3.688800099389816e-07	1.572601680730022e-07	-8.118081004761706e-09	2.460556924168437e-07	-1.08582223949998e-08	2.401797369348922e-09
0.01	0.05259926281728584	0.1055729403307504	0.9043711960933436	0.1271489432040469	-0.3569667423811758	-0.2348391677820245	-0.2146664836453091	0.2056421957331012	0.2056421957330073	-0.1473229035191073	-0.1635698872544708	0.09042613385181152	0.093399447942154	-0.02284073631654513	-0.006953149829278407	-0.007493958947828777	0.0912947646039096	-0.003922404996415657	0.03065119593524852	-0.03369614089654396	0.09628484536129732	0.09628484536129725	0.01671707259177413	-0.005870953515348736	0.03601058424870728	0.006603688310436711	0.1108135242709599	-0.03467566945532967	-0.009351309687158044	-0.2492768861526153	0.2002899531807588	-0.09553302841228889	-0.04289973817279237	32.70157435867233	37.74957570757502	-8.567117543901631	-24.69580053674605	-440.7034560771305	-35.71969714976393	-26.16058254245468	-2.410448387101447	-0.6856406471588981	-0.7258644798197922	9.016741135870465	-0.2856518289356803	3.009820440503114	-3.366030550737099	9.179856669300815	9.17985666930085	1.764411174351483	-0.4352828543679236	3.404366748602143	0.7158300141445841	-1.630111293293803e-08	5.768384132529093e-07	-3.964922318773866e-08	4.921457879741676e-08	-2.476253831615898e-08	1.86439811937843e-07	5.998910655245389e-08
0.02	0.05224138566505291	0.1054692538047636	0.9042599817500658	0.1285174074969554	-0.3570175750288677	-0.2343893749467452	-0.2151666904259333	0.2070551458572055	0.2070551458572089	-0.1470642839693318	-0.1636529209970346	0.09095155148370836	0.09350276221980722	-0.04934521782117763	-0.01375971351626699	-0.01470150175928968	0.1823599004959889	-0.005923288130444634	0.05890844626089353	-0.06613580191970247	0.1850522810490459	0.1850522810490441	0.03532072463375984	-0.0105347032876819	0.06848321311955148	0.01423014022604816	0.1162296880489681	-0.0443425797888684	-0.01034100215019754	-0.2589182525488495	0.2095202363460064	-0.0894503740870011	-0.04640880679167927	35.90720113753106	34.87304325158618	-8.481400535566525	-26.72627023353297	-442.9119179838656	-42.9344457114461	-26.16112921034863	-2.947260417783608	-0.6780171188922511	-0.7248546906213411	9.297539931473922	-0.1250373754554559	2.577231497167442	-3.06266119914387	8.646387851399538	8.646387851399084	1.957944291381821	-0.5889194101145673	3.109952932941842	0.8051373661355884	-2.288628151944827e-08	7.84796816566837e-07	-2.365586144484795e-07	1.065472385995952e-07	-2.955807690491617e-07	3.837378462706859e-07	1.175764157355588e-07
0.03	0.0516095091902148	0.1052983387328642	0.9040775300062315	0.1307911517942426	-0.357083093261832	-0.2336667353372169	-0.2159839133484379	0.2093303490372165	0.2093303490371618	-0.1466158058997508	-0.1637803218129882	0.09179012384728939	0.0936847021863025	-0.0766517645854483	-0.02038624920751564	-0.02179165970607104	0.2718191488155925	-0.007294488910519526	0.08564123802789163	-0.09704463196356382	0.2698470035967777	0.269847003596777	0.05407568659644597	-0.01490141046613201	0.09921984395864594	0.02203329313418399	0.1100232426247986	-0.03902066501805416	-0.009132544001088726	-0.2502759102149877	0.1985761563350549	-0.09010943819625969	-0.04185086793984021	32.39720629069319	35.44489494212081	-8.19682392101026	-24.54395735890995	-442.117618750842	-40.47107591104566	-26.16106309498456	-2.565597369802576	-0.6493925052018715	-0.7015784618554287	8.684647554290894	-0.1603531742872797	2.724627976470249	-3.065371313848721	8.37478800595928	8.374788005959941	1.789496038997911	-0.3539964044540849	3.053825024009075	0.7491256950623172	-3.371806836097665e-08	9.182909537946785e-07	-1.714914371166243e-07	1.19275310409526e-07	-3.734160260692778e-07	3.551372758207248e-07	1.260358669082863e-07
0.04	0.05071591813488925	0.1050622741618601	0.9038240802599007	0.1339423946291371	-0.3571657618516008	-0.2326761028180319	-0.2171023000527563	0.2124492541525745	0.2124492541525788	-0.1459887334325798	-0.1639500797073274	0.09293572389217368	0.09394091797026066	-0.1016881339118397	-0.02678961333720073	-0.02890110225861164	0.3578596080187101	-0.009353359490775799	0.1125070281950599	-0.1263685582810571	0.3537926681245018	0.3537926681245057	0.07103960417057285	-0.0190061189543427	0.1298887493823776	0.02908530371870597	0.103816797200962	-0.03369875024716522	-0.007924085851696737	-0.2416335678808839	0.1876320763242286	-0.09076850230540216	-0.03729292908788494	28.92526138992565	36.02675940445733	-7.932891001842171	-22.40723234643274	-440.6279458281994	-37.83322196025988	-26.15986749465302	-2.493224930207536	-0.6333828065797078	-0.7287116117731907	8.613782108176773	-0.2625713354917479	2.6038311772015	-2.745680453870127	8.47657624739816	8.476576247398388	1.599735413669986	-0.5365196720667381	3.096407849869165	0.654908901412755	-4.463741434178376e-08	1.050249745330024e-06	-1.01022681050901e-07	1.310836999928125e-07	-4.472722527035611e-07	3.218790021793658e-07	1.334823725550265e-07
0.05	0.0495789660751174	0.104762810606483	0.9034993498890274	0.1379404607911087	-0.357270764117922	-0.2314186666516599	-0.2185065263709018	0.2163997014912167	0.2163997014912022	-0.1451986299746475	-0.1641599043836918	0.09438501423432616	0.0942649595670928	-0.1257269888338971	-0.03311321244919838	-0.0360507509828161	0.4414859021727747	-0.01158140415798959	0.1387947887396702	-0.1542979635109176	0.4357568843365927	0.4357568843365955	0.08693117104369778	-0.02288942638110733	0.1596868546554421	0.03571379477612525	0.1014185487325221	-0.03199790390436388	-0.00731755745591838	-0.2391696029910643	0.1827981527949926	-0.08979328832423848	-0.03554919489028539	27.41422137278897	35.77828319720597	-7.791031362886327	-21.17163610976735	-440.5931067567859	-37.73356270526759	-26.15693169349413	-2.362916532680179	-0.6333393583176353	-0.7090484140358416	8.196892463597688	-0.1932028943592123	2.613484687879029	-2.789759281575825	7.975330261743529	7.975330261743416	1.576545789262207	-0.3038676702243192	2.879170393599059	0.6652828552394683	-4.189506569434387e-08	1.010481440402458e-06	-1.491755444481967e-07	1.336285754445369e-07	-5.029844214999858e-07	3.433311829230934e-07	1.386464255494185e-07
